<svg width="64" height="64" viewBox="0 0 64 64" fill="none" xmlns="http://www.w3.org/2000/svg">
  <!-- Mystical circle background -->
  <circle cx="32" cy="32" r="30" fill="url(#gradient)" stroke="#2c3e50" stroke-width="2"/>
  
  <!-- Gradient definition -->
  <defs>
    <linearGradient id="gradient" x1="0%" y1="0%" x2="100%" y2="100%">
      <stop offset="0%" style="stop-color:#667eea;stop-opacity:1" />
      <stop offset="100%" style="stop-color:#764ba2;stop-opacity:1" />
    </linearGradient>
    
    <!-- Glow effect -->
    <filter id="glow">
      <feGaussianBlur stdDeviation="3" result="coloredBlur"/>
      <feMerge> 
        <feMergeNode in="coloredBlur"/>
        <feMergeNode in="SourceGraphic"/>
      </feMerge>
    </filter>
  </defs>
  
  <!-- Crystal ball/orb effect -->
  <circle cx="32" cy="32" r="26" fill="none" stroke="rgba(255,255,255,0.3)" stroke-width="1"/>
  <circle cx="32" cy="32" r="22" fill="none" stroke="rgba(255,255,255,0.2)" stroke-width="1"/>
  
  <!-- The sacred em dash in the center -->
  <rect x="20" y="30" width="24" height="4" rx="2" fill="#ffffff" filter="url(#glow)"/>
  
  <!-- Mystical sparkles around the em dash -->
  <circle cx="16" cy="24" r="1.5" fill="#ffffff" opacity="0.8"/>
  <circle cx="48" cy="26" r="1" fill="#ffffff" opacity="0.6"/>
  <circle cx="18" cy="40" r="1" fill="#ffffff" opacity="0.7"/>
  <circle cx="46" cy="38" r="1.5" fill="#ffffff" opacity="0.9"/>
  
  <!-- Additional mystical elements -->
  <path d="M32 12 L34 18 L32 16 L30 18 Z" fill="#ffffff" opacity="0.6"/>
  <path d="M32 52 L34 46 L32 48 L30 46 Z" fill="#ffffff" opacity="0.6"/>
  <path d="M12 32 L18 30 L16 32 L18 34 Z" fill="#ffffff" opacity="0.6"/>
  <path d="M52 32 L46 34 L48 32 L46 30 Z" fill="#ffffff" opacity="0.6"/>
</svg>
